<svg width="32" height="32" viewBox="0 0 32 32" fill="none" xmlns="http://www.w3.org/2000/svg">
<path fill-rule="evenodd" clip-rule="evenodd" d="M11.1676 4.00578H20.8323C21.9678 3.94775 23.0806 4.32827 23.925 5.06337C24.7695 5.79847 25.2762 6.82772 25.3333 7.92396V26.6619C25.3348 27.0371 25.1724 27.3956 24.886 27.6493C24.5995 27.903 24.2155 28.0284 23.8283 27.9946C23.489 27.9946 23.1591 27.8869 22.8895 27.6881L16.9112 23.3034C16.3467 22.8947 15.5704 22.8947 15.0059 23.3034L9.08281 27.6881C8.82071 27.8814 8.50141 27.9889 8.17156 27.9946C7.78438 28.0284 7.40039 27.903 7.11392 27.6493C6.82745 27.3956 6.66506 27.0371 6.66664 26.6619V7.92396C6.72374 6.82772 7.23042 5.79847 8.07486 5.06337C8.9193 4.32827 10.0321 3.94775 11.1676 4.00578ZM18.1952 21.7175L23.2346 25.4491L23.207 7.92396C23.0764 6.76205 22.0116 5.91145 20.8047 6.00485H11.14C9.93308 5.91145 8.8683 6.76205 8.73764 7.92396V25.4491L13.7771 21.7175C15.082 20.7578 16.8903 20.7578 18.1952 21.7175Z" fill="currentColor"/>
</svg>
