<svg width="23" height="23" viewBox="0 0 23 23" fill="none" xmlns="http://www.w3.org/2000/svg">
<path fill-rule="evenodd" clip-rule="evenodd" d="M18.0012 12.1419L22.6552 16.7973C22.9682 17.1557 23.0773 17.6488 22.9445 18.1058L22.0892 21.0878C21.9575 21.539 21.6077 21.8937 21.1584 22.0315L18.1019 22.95C17.6147 23.0821 17.094 22.9483 16.7308 22.5977L12.0643 17.9297C11.43 17.2958 10.5709 16.9385 9.67436 16.9357C9.24278 16.9376 8.81566 17.0231 8.41653 17.1873C8.01586 17.3449 7.58922 17.426 7.15869 17.4264C6.26102 17.4292 5.39987 17.071 4.7688 16.4324L0.995295 12.6577C0.138075 11.8032 -0.197658 10.5558 0.11481 9.38634L1.58648 3.93824C1.88555 2.75606 2.79938 1.82751 3.97637 1.50987L9.47311 0.11324C9.76065 0.0384961 10.0565 0.000447253 10.3536 0C11.2502 0.00278663 12.1092 0.360097 12.7435 0.993996L16.517 4.76866C17.4838 5.73602 17.7763 7.18901 17.2591 8.45526C16.742 9.72151 17.0345 11.1745 18.0012 12.1419ZM17.9006 21.1004L20.4163 20.358L21.1081 17.8919L16.6679 13.4504C15.1569 11.9479 14.7045 9.68045 15.5233 7.71291C15.7394 7.14597 15.6014 6.5049 15.1711 6.07722L11.3976 2.30255C11.1201 2.01793 10.7385 1.85888 10.341 1.86217C10.2117 1.84306 10.0804 1.84306 9.95109 1.86217L4.46693 3.33429C3.95155 3.47298 3.54899 3.87567 3.41034 4.3912L1.93868 9.92738C1.80064 10.4447 1.94932 10.9965 2.3286 11.3743L6.10211 15.149C6.37964 15.4336 6.76124 15.5927 7.1587 15.5894C7.35165 15.5875 7.54295 15.5535 7.72472 15.4887C8.3461 15.2286 9.01336 15.096 9.68695 15.0987C11.1023 15.0828 12.4636 15.6411 13.4605 16.6463L17.9006 21.1004Z" fill="currentColor"/>
<path d="M9.91335 5.93881L6.01406 9.8393C5.6462 10.2077 5.6462 10.8046 6.01406 11.173C6.38238 11.541 6.97905 11.541 7.34737 11.173L11.2467 7.27253C11.4265 7.09727 11.5279 6.8568 11.5279 6.60567C11.5279 6.35454 11.4265 6.11407 11.2467 5.93881C10.8783 5.57084 10.2817 5.57084 9.91335 5.93881Z" fill="currentColor"/>
</svg>
