<svg width="32" height="32" viewBox="0 0 32 32" fill="none" xmlns="http://www.w3.org/2000/svg">
<path d="M27.5567 13.6041C27.7123 12.5605 27.6613 11.4921 27.4037 10.4649C27.0634 9.10782 26.3626 7.82265 25.3014 6.76142C24.2402 5.7002 22.955 4.99945 21.598 4.65918C20.5707 4.40159 19.5023 4.35057 18.4587 4.50613" stroke="currentColor" stroke-width="1.84615" stroke-linecap="round" stroke-linejoin="round"/>
<path d="M22.886 13.1098C23.0527 11.9919 22.7057 10.8122 21.8452 9.95168C20.9845 9.09113 19.8049 8.74411 18.687 8.91076" stroke="currentColor" stroke-width="1.84615" stroke-linecap="round" stroke-linejoin="round"/>
<path d="M10.6928 6.3349C11.1399 6.3349 11.5518 6.5774 11.7688 6.9683L13.2743 9.68017C13.4714 10.0353 13.4807 10.4647 13.2991 10.828L11.8487 13.7287C11.8487 13.7287 12.269 15.8896 14.028 17.6486C15.7871 19.4076 17.9407 19.8207 17.9407 19.8207L20.841 18.3706C21.2045 18.1888 21.6343 18.1982 21.9895 18.3957L24.709 19.9077C25.0996 20.1248 25.3418 20.5365 25.3418 20.9834V24.1055C25.3418 25.6955 23.8649 26.8439 22.3584 26.3355C19.2643 25.2915 14.4614 23.3037 11.4172 20.2594C8.37297 17.2152 6.38515 12.4124 5.34114 9.31827C4.83282 7.81174 5.98118 6.3349 7.57112 6.3349H10.6928Z" stroke="currentColor" stroke-width="1.84615" stroke-linejoin="round"/>
</svg>
