<svg width="37" height="39" viewBox="0 0 37 39" fill="none" xmlns="http://www.w3.org/2000/svg">
<path fill-rule="evenodd" clip-rule="evenodd" d="M2.78504 11.6998C5.5186 5.13592 11.9234 0.852826 19.0337 0.833835C26.6969 0.79348 33.5109 5.70203 35.8997 12.9835C38.2884 20.265 35.7064 28.256 29.5085 32.763C23.3106 37.2699 14.9127 37.2632 8.72207 32.7463L3.20207 38.2663C2.64083 38.8269 1.73164 38.8269 1.1704 38.2663C0.609866 37.7051 0.609866 36.7959 1.1704 36.2347L6.5179 30.8872C1.52288 25.8269 0.0514826 18.2637 2.78504 11.6998ZM5.34791 24.1576C7.64307 29.6885 13.0456 33.2908 19.0337 33.283V33.2063C27.161 33.196 33.7586 26.6326 33.8112 18.5055C33.819 12.5173 30.2167 7.11484 24.6859 4.81968C19.155 2.52452 12.786 3.78924 8.55176 8.02352C4.31748 12.2578 3.05275 18.6268 5.34791 24.1576Z" fill="#D9D9D9"/>
</svg>
