<svg width="15" height="15" viewBox="0 0 15 15" fill="none" xmlns="http://www.w3.org/2000/svg">
<path fill-rule="evenodd" clip-rule="evenodd" d="M1.66075 8.34806C1.66075 5.24146 4.17915 2.72306 7.28575 2.72306C10.3924 2.72306 12.9108 5.24146 12.9108 8.34806C12.9108 11.4547 10.3924 13.9731 7.28575 13.9731C4.17915 13.9731 1.66075 11.4547 1.66075 8.34806ZM2.59825 8.34806C2.59825 10.9369 4.69692 13.0356 7.28575 13.0356C8.52895 13.0356 9.72124 12.5417 10.6003 11.6626C11.4794 10.7836 11.9733 9.59127 11.9733 8.34806C11.9733 5.75923 9.87459 3.66056 7.28575 3.66056C4.69692 3.66056 2.59825 5.75923 2.59825 8.34806Z" fill="currentColor"/>
<path d="M5.817 5.96681C5.63231 5.79472 5.3445 5.79979 5.16599 5.9783C4.98748 6.15681 4.9824 6.44462 5.1545 6.62931L6.817 8.29181V10.8481C6.817 11.1069 7.02687 11.3168 7.28575 11.3168C7.54464 11.3168 7.7545 11.1069 7.7545 10.8481V8.09806C7.75439 7.97379 7.70494 7.85464 7.617 7.76681L5.817 5.96681Z" fill="currentColor"/>
<path d="M13.242 3.66056C12.4704 2.6315 11.4454 1.81975 10.267 1.30431C10.152 1.25218 10.0208 1.24865 9.90316 1.29454C9.78551 1.34042 9.69135 1.43183 9.642 1.54806C9.58803 1.66284 9.58357 1.79475 9.62965 1.91291C9.67574 2.03108 9.76833 2.12513 9.88575 2.17306C10.9151 2.62596 11.8105 3.33626 12.4858 4.23556C12.5743 4.3536 12.7132 4.42306 12.8608 4.42306C12.9622 4.42352 13.0611 4.39058 13.142 4.32931C13.2461 4.25551 13.3156 4.14245 13.3345 4.01624C13.3534 3.89004 13.32 3.76159 13.242 3.66056Z" fill="currentColor"/>
<path d="M2.0795 4.22306C2.75474 3.32376 3.65015 2.61346 4.6795 2.16056C4.79693 2.11263 4.88952 2.01858 4.9356 1.90041C4.98169 1.78225 4.97722 1.65034 4.92325 1.53556C4.8739 1.41933 4.77974 1.32792 4.6621 1.28204C4.54445 1.23615 4.41327 1.23968 4.29825 1.29181C3.12065 1.81166 2.09783 2.62776 1.3295 3.66056C1.1945 3.86181 1.23514 4.13279 1.42325 4.28556C1.50418 4.34683 1.603 4.37977 1.7045 4.37931C1.84675 4.38692 1.98474 4.32942 2.0795 4.22306Z" fill="currentColor"/>
</svg>
